<?xml version="1.0" encoding="UTF-8" ?>
<!DOCTYPE svg PUBLIC "-//W3C//DTD SVG 1.1//EN" "http://www.w3.org/Graphics/SVG/1.1/DTD/svg11.dtd">
<svg width="50pt" height="50pt" viewBox="0 0 50 50" version="1.1" xmlns="http://www.w3.org/2000/svg">
<path fill="#ececee" d=" M 0.00 0.00 L 18.99 0.00 C 18.25 1.46 19.42 5.35 17.15 5.07 C 17.06 4.20 16.88 2.44 16.80 1.56 C 14.10 2.67 16.62 8.92 12.99 7.09 C 13.10 6.15 13.33 4.28 13.44 3.34 C 11.55 4.02 11.72 6.42 11.24 8.03 C 10.39 11.80 12.61 15.21 14.28 18.39 L 14.05 18.76 C 13.57 18.93 12.59 19.27 12.11 19.44 C 13.05 22.34 13.87 25.38 15.69 27.87 C 16.88 30.33 17.26 33.19 19.26 35.24 C 19.27 36.46 19.23 37.68 19.17 38.90 C 12.59 39.65 4.00 42.25 3.15 50.00 L 0.00 50.00 L 0.00 0.00 Z" />
<path fill="#580b59" d=" M 18.99 0.00 L 19.94 0.00 C 20.79 1.46 21.63 4.01 23.74 3.73 C 23.97 2.49 23.81 1.24 23.26 0.00 L 24.40 0.00 C 26.04 1.17 26.65 3.64 28.77 4.07 C 28.61 2.71 28.41 1.35 28.15 0.00 L 29.76 0.00 C 31.52 2.56 32.60 5.49 34.20 8.13 C 34.87 7.31 35.30 5.01 36.78 6.20 C 37.65 9.80 36.09 13.45 35.51 16.99 C 33.85 16.57 34.52 14.42 33.82 13.24 C 30.56 6.42 18.88 5.45 14.99 12.09 C 14.49 13.70 14.32 15.35 14.48 17.03 L 15.56 16.70 C 15.81 16.32 16.32 15.56 16.57 15.18 C 16.41 15.71 16.10 16.76 15.95 17.29 C 15.39 17.66 14.84 18.03 14.28 18.39 C 12.61 15.21 10.39 11.80 11.24 8.03 C 11.72 6.42 11.55 4.02 13.44 3.34 C 13.33 4.28 13.10 6.15 12.99 7.09 C 16.62 8.92 14.10 2.67 16.80 1.56 C 16.88 2.44 17.06 4.20 17.15 5.07 C 19.42 5.35 18.25 1.46 18.99 0.00 Z" />
<path fill="#ececee" d=" M 19.94 0.00 L 23.26 0.00 C 23.81 1.24 23.97 2.49 23.74 3.73 C 21.63 4.01 20.79 1.46 19.94 0.00 Z" />
<path fill="#ececee" d=" M 24.40 0.00 L 28.15 0.00 C 28.41 1.35 28.61 2.71 28.77 4.07 C 26.65 3.64 26.04 1.17 24.40 0.00 Z" />
<path fill="#ececee" d=" M 29.76 0.00 L 50.00 0.00 L 50.00 50.00 L 48.28 50.00 C 47.48 46.56 45.41 43.27 42.09 41.80 C 38.57 40.11 34.61 39.89 30.81 39.25 C 30.75 37.54 30.71 35.82 30.72 34.11 C 32.45 32.31 33.19 29.94 33.75 27.58 C 36.91 26.33 36.76 22.11 37.46 19.29 C 36.86 19.19 35.65 18.99 35.05 18.89 C 35.21 18.25 35.36 17.62 35.51 16.99 C 36.09 13.45 37.65 9.80 36.78 6.20 C 35.30 5.01 34.87 7.31 34.20 8.13 C 32.60 5.49 31.52 2.56 29.76 0.00 Z" />
<path fill="#afd2ec" d=" M 14.99 12.09 C 18.88 5.45 30.56 6.42 33.82 13.24 C 34.52 14.42 33.85 16.57 35.51 16.99 C 35.36 17.62 35.21 18.25 35.05 18.89 C 34.62 18.08 34.09 17.37 33.46 16.73 C 31.50 14.47 27.16 11.37 24.99 14.97 C 25.45 18.96 30.23 15.03 32.46 16.93 C 29.96 17.63 27.36 17.18 24.81 17.36 C 24.44 20.04 25.21 22.60 25.95 25.13 C 24.34 25.96 22.60 25.69 20.97 25.09 C 21.85 22.59 23.49 20.23 23.02 17.45 C 20.67 17.27 18.30 17.44 15.95 17.29 C 17.98 15.40 22.99 18.47 22.90 14.38 C 21.17 12.00 18.20 13.56 16.57 15.18 C 16.32 15.56 15.81 16.32 15.56 16.70 L 14.48 17.03 C 14.32 15.35 14.49 13.70 14.99 12.09 Z" />
<path fill="#19171c" d=" M 16.57 15.18 C 18.20 13.56 21.17 12.00 22.90 14.38 C 22.99 18.47 17.98 15.40 15.95 17.29 C 16.10 16.76 16.41 15.71 16.57 15.18 Z" />
<path fill="#19171c" d=" M 24.99 14.97 C 27.16 11.37 31.50 14.47 33.46 16.73 L 32.46 16.93 C 30.23 15.03 25.45 18.96 24.99 14.97 Z" />
<path fill="#8f85ba" d=" M 14.28 18.39 C 14.84 18.03 15.39 17.66 15.95 17.29 C 18.30 17.44 20.67 17.27 23.02 17.45 C 23.49 20.23 21.85 22.59 20.97 25.09 C 22.60 25.69 24.34 25.96 25.95 25.13 C 25.21 22.60 24.44 20.04 24.81 17.36 C 27.36 17.18 29.96 17.63 32.46 16.93 L 33.46 16.73 C 34.09 17.37 34.62 18.08 35.05 18.89 C 35.65 18.99 36.86 19.19 37.46 19.29 C 36.65 19.47 35.02 19.82 34.21 20.00 C 33.60 22.48 33.81 25.05 33.75 27.58 C 33.19 29.94 32.45 32.31 30.72 34.11 C 27.16 35.74 23.07 36.28 19.26 35.24 C 17.26 33.19 16.88 30.33 15.69 27.87 C 16.04 24.76 15.35 21.59 14.05 18.76 L 14.28 18.39 Z" />
<path fill="#580b59" d=" M 12.11 19.44 C 12.59 19.27 13.57 18.93 14.05 18.76 C 15.35 21.59 16.04 24.76 15.69 27.87 C 13.87 25.38 13.05 22.34 12.11 19.44 Z" />
<path fill="#ececee" d=" M 18.20 20.78 C 16.27 22.90 15.75 18.48 17.99 19.14 C 18.04 19.55 18.15 20.37 18.20 20.78 Z" />
<path fill="#704c7b" d=" M 17.99 19.14 C 18.50 19.11 19.50 19.05 20.00 19.02 C 19.98 19.47 19.94 20.35 19.92 20.80 C 19.49 20.79 18.63 20.78 18.20 20.78 C 18.15 20.37 18.04 19.55 17.99 19.14 Z" />
<path fill="#ececee" d=" M 20.00 19.02 L 20.84 19.00 C 20.82 19.49 20.77 20.47 20.75 20.96 L 19.92 20.80 C 19.94 20.35 19.98 19.47 20.00 19.02 Z" />
<path fill="#ececee" d=" M 28.08 20.90 C 25.73 22.71 25.80 17.31 28.14 19.10 C 28.12 19.55 28.10 20.45 28.08 20.90 Z" />
<path fill="#580b59" d=" M 28.14 19.10 L 28.95 18.98 L 29.34 19.79 C 29.03 20.07 28.40 20.63 28.08 20.90 C 28.10 20.45 28.12 19.55 28.14 19.10 Z" />
<path fill="#ececee" d=" M 30.12 19.28 L 30.90 19.20 C 30.88 19.65 30.84 20.53 30.83 20.97 L 29.98 21.01 C 30.02 20.58 30.09 19.72 30.12 19.28 Z" />
<path fill="#704c7b" d=" M 34.21 20.00 C 35.02 19.82 36.65 19.47 37.46 19.29 C 36.76 22.11 36.91 26.33 33.75 27.58 C 33.81 25.05 33.60 22.48 34.21 20.00 Z" />
<path fill="#e9a429" d=" M 20.51 28.99 C 22.34 28.86 24.08 29.72 25.87 28.96 C 27.67 29.49 26.83 31.29 25.54 31.87 C 23.65 33.91 19.97 31.58 20.51 28.99 Z" />
<path fill="#afd2ec" d=" M 19.26 35.24 C 23.07 36.28 27.16 35.74 30.72 34.11 C 30.71 35.82 30.75 37.54 30.81 39.25 C 30.71 39.70 30.52 40.60 30.43 41.05 C 27.19 43.25 22.77 43.31 19.33 41.54 C 19.29 40.88 19.21 39.56 19.17 38.90 C 19.23 37.68 19.27 36.46 19.26 35.24 Z" />
<path fill="#19171c" d=" M 3.15 50.00 C 4.00 42.25 12.59 39.65 19.17 38.90 C 19.21 39.56 19.29 40.88 19.33 41.54 C 22.77 43.31 27.19 43.25 30.43 41.05 C 30.52 40.60 30.71 39.70 30.81 39.25 C 34.61 39.89 38.57 40.11 42.09 41.80 C 45.41 43.27 47.48 46.56 48.28 50.00 L 3.15 50.00 Z" />
</svg>
